<svg id="Layer_1" data-name="Layer 1" xmlns="http://www.w3.org/2000/svg" viewBox="0 0 172.5 160"><defs><style>.cls-1{fill:#e1b764;}.cls-1,.cls-2{fill-rule:evenodd;}.cls-2{fill:#433317;}</style></defs><title>purr@256</title><path class="cls-1" d="M138.79,82.36c11.42-1.89,16.07,25.53,3.91,26.89C129.79,110.69,123.72,84.85,138.79,82.36Z" transform="translate(-45.75 -48)"/><path class="cls-2" d="M140.46,65.87c0-.05,7.64-15.89,11.59-17.62l.15-.06c3-1.16,6.07,3.1,10.11,9.4,8.66,13.53,14.63,25.66,17.93,41.56,2.31,11.12,4.36,30.5,7,49.55,3,22.09,8.3,54.57-21.25,58.89-4.91.72-10.28.3-15.26-.05-6.26-.43-16.11-1.11-28.48-.8-1.59,0-8.88.28-16.4.54-6.61.23-18.76,1.29-25.46.31C51,203.29,57.2,173.09,58,151.33c.53-14.47,2.43-43.94,11-74,.85-6.85,2.66-19.22,10.19-26.66A1.41,1.41,0,0,1,81,50.49,61.49,61.49,0,0,1,95.86,67.9l-3.15,1.82A156,156,0,0,0,80.85,55.07a.64.64,0,0,0-.75,0c-6.83,8.53-7,22-7,22-7.8,28.07-8.77,57.31-9.4,74.46-.67,18.33-6.84,46.68,17.47,50.23,6.29.92,18.37-.14,24.47-.36,7.46-.26,14.77-.5,16.44-.54,12.75-.31,22.69.37,29,.81,4.55.31,9.61.75,14.07.09,24.66-3.6,18.88-34.11,16.36-52.26-2.61-18.91-4.65-38.17-6.92-49.14-3.17-15.22-6.89-27.33-15.08-40.31-2.5-4-4.94-7.5-5.57-8.29a.22.22,0,0,0-.34,0c-2.45,1.87-10.38,15.72-10.4,15.76Z" transform="translate(-45.75 -48)"/><path class="cls-2" d="M83.41,73.15a1.43,1.43,0,0,1-1.19-2.61s8.25-3.88,34.44-5.63c26.36-1.75,34.56,3,34.59,3a1.44,1.44,0,1,1-1.4,2.51s-7.48-4.31-33-2.61C91.18,69.49,83.44,73.14,83.41,73.15Z" transform="translate(-45.75 -48)"/><path class="cls-2" d="M48.05,109a1.44,1.44,0,0,1-1.73-2.3S58.88,97,75.88,97.4a1.44,1.44,0,0,1-.06,2.87A48,48,0,0,0,48.05,109Z" transform="translate(-45.75 -48)"/><path class="cls-2" d="M53.08,121a1.44,1.44,0,0,1-1.85-2.2s6-5.26,25.52-9.74a1.44,1.44,0,0,1,.64,2.81C58.58,116.22,53.1,121,53.08,121Z" transform="translate(-45.75 -48)"/><path class="cls-2" d="M53.09,131.68a1.43,1.43,0,1,1-1.87-2.17s5.49-4.89,26.9-11a1.44,1.44,0,1,1,.78,2.77C58.11,127.21,53.11,131.67,53.09,131.68Z" transform="translate(-45.75 -48)"/><path class="cls-2" d="M168.07,113.54a1.43,1.43,0,1,1-1.21-2.6s14.13-7.07,22.25-10.12a1.43,1.43,0,0,1,1,2.69c-8,3-22,10-22,10Zm-3.3-19.66a1.44,1.44,0,1,1-1-2.7c.05,0,12.09-4.42,20.89-9.67A1.44,1.44,0,1,1,186.15,84c-9.06,5.41-21.33,9.89-21.38,9.91Zm1.57,9.76s10.71-4.82,18.69-7.82a1.42,1.42,0,0,0,.85-1.84,1.45,1.45,0,0,0-1.85-.85c-8.14,3.06-18.77,7.85-18.82,7.87a1.44,1.44,0,1,0,1.13,2.64Z" transform="translate(-45.75 -48)"/><path class="cls-2" d="M89.67,102.69c-.5-1.26-1.13-5.24,4-6.23s6.65,2,6.63,3.93-1.16,4.86-4.15,5.4A6.77,6.77,0,0,1,89.67,102.69Z" transform="translate(-45.75 -48)"/><path class="cls-2" d="M135.62,96.68a3.63,3.63,0,0,1,0-4c1.42-2,5.6-2.59,7.37-1s.8,4.14.23,5.45-1.42,3-2.52,3S137.74,99.54,135.62,96.68Z" transform="translate(-45.75 -48)"/><path class="cls-2" d="M119.48,116.26c6.4-.91,11.25,12,1.63,12.32C113.27,128.86,112.88,117.2,119.48,116.26Z" transform="translate(-45.75 -48)"/><path class="cls-2" d="M139.4,121a1.44,1.44,0,0,1,2.86-.33.76.76,0,0,1,0,.15c0,.94.39,10.27-7.36,14a10.65,10.65,0,0,1-4.52,1.11,10.51,10.51,0,0,1-4.52-1,14.73,14.73,0,0,1-4.41-3.27,11.12,11.12,0,0,1-1.7,2.51,8.19,8.19,0,0,1-6.64,2.75c-7.52-.28-7.84-7.78-7.75-10.17,0-.46,0-.71,0-.73a1.42,1.42,0,0,1,.19-.58l.14-.19a1.46,1.46,0,0,1,1.33-.49,1.43,1.43,0,0,1,1,.66,1,1,0,0,1,.11.23,1.45,1.45,0,0,1,.1.69,3.32,3.32,0,0,0,0,.51c-.06,1.7.12,7,5,7.2a5.43,5.43,0,0,0,4.42-1.82,10.15,10.15,0,0,0,2-3.76,1.43,1.43,0,0,1,2.58-.43,13.52,13.52,0,0,0,2.25,2.58,10.21,10.21,0,0,0,2.56,1.68,7.6,7.6,0,0,0,3.3.72,7.92,7.92,0,0,0,3.31-.83C139.74,129.32,139.44,121.73,139.4,121Z" transform="translate(-45.75 -48)"/><path class="cls-2" d="M86.91,158a1.43,1.43,0,0,1,1.5-1.37,1.45,1.45,0,0,1,1.37,1.5s-.57,10.06,3.84,10.57c4.61.53,8.66-11.08,8.67-11.11a1.44,1.44,0,1,1,2.71.95s-4.8,13.81-11.71,13C86.17,170.73,86.9,158,86.91,158Z" transform="translate(-45.75 -48)"/><path class="cls-2" d="M139.41,156.16a1.44,1.44,0,1,1,2.8.63s-1.91,8.17,4.58,8.2c5.35-.61,6-13.85,6-13.89a1.44,1.44,0,0,1,2.87.16c0,.05-.79,15.81-8.67,16.59h-.13C136.65,167.93,139.4,156.19,139.41,156.16Z" transform="translate(-45.75 -48)"/><path class="cls-1" d="M161,147.19a1.44,1.44,0,0,1-.25-2.86,15.29,15.29,0,0,0,7.35-3.08c3.88-3,8.39-6.12,8.41-6.14a1.43,1.43,0,1,1,1.65,2.34s-4.36,3-8.31,6.07a18.65,18.65,0,0,1-8.85,3.67Zm3.51,8.85a15.28,15.28,0,0,0,9.63-3.22c3.62-3.09,4.93-4.09,4.94-4.09a1.44,1.44,0,0,0-1.71-2.31s-1.42,1.08-5.1,4.21a12.13,12.13,0,0,1-7.65,2.54,1.45,1.45,0,0,0-1.49,1.39,1.43,1.43,0,0,0,1.38,1.48Zm.55,6.71a1.44,1.44,0,0,1,.45-2.84s5.8,3.24,12.9-5.92a1.43,1.43,0,0,1,2.27,1.75C172.53,166.26,165.1,162.75,165.07,162.75Z" transform="translate(-45.75 -48)"/><path class="cls-2" d="M187.24,176.9s15.55-5.45,19.9-14.78c1.75-3.76,1.81-8,1.87-11.78,0-.93,0-1.83.05-2.65a40.28,40.28,0,0,1,.68-6.08,10.39,10.39,0,0,1,1.54-4.11,6.7,6.7,0,0,1,2.76-2c.89-.41,1.63-.76,1-2.91,0-.11-.06-.19-.07-.22-.63-1.64-2.4-2.38-4.27-2.63a13.85,13.85,0,0,0-5.42.37l-.23.08a9.47,9.47,0,0,0-3.73,2.72,4.5,4.5,0,0,0-1.11,3.06c0,.26.05.79.1,1.46.45,6.09,1.74,23.69-2.39,28.48a12.46,12.46,0,0,1-10.82,4.4l.44-2.84a9.45,9.45,0,0,0,8.21-3.43c3.35-3.89,2.12-20.62,1.69-26.4,0-.59-.07-1.07-.1-1.5a7.26,7.26,0,0,1,1.74-5,12.54,12.54,0,0,1,4.94-3.61l.4-.14a17,17,0,0,1,6.66-.48c2.79.38,5.47,1.6,6.57,4.46l.14.39c1.42,4.53-.35,5.36-2.49,6.36a4.5,4.5,0,0,0-1.71,1.15,8,8,0,0,0-1,2.9,35.65,35.65,0,0,0-.63,5.62c0,.86,0,1.71-.05,2.57-.06,4.11-.13,8.67-2.13,13-4.86,10.43-21.51,16.27-21.55,16.28Z" transform="translate(-45.75 -48)"/></svg>